<mxfile host="app.diagrams.net" agent="Mozilla/5.0 (Windows NT 10.0; Win64; x64) AppleWebKit/537.36 (KHTML, like Gecko) Chrome/133.0.0.0 Safari/537.36" version="26.0.14">
  <diagram name="第 1 页" id="eT8KeEZXA3bwqJcMABjN">
    <mxGraphModel dx="384" dy="251" grid="1" gridSize="10" guides="1" tooltips="1" connect="1" arrows="1" fold="1" page="1" pageScale="1" pageWidth="827" pageHeight="1169" math="1" shadow="0">
      <root>
        <mxCell id="0" />
        <mxCell id="1" parent="0" />
        <mxCell id="4QQ-ZEQ1b0znX0H3XV6B-32" value="Feed&lt;div&gt;Forward&lt;/div&gt;" style="rounded=1;whiteSpace=wrap;html=1;" vertex="1" parent="1">
          <mxGeometry x="180" y="450" width="280" height="40" as="geometry" />
        </mxCell>
        <mxCell id="4QQ-ZEQ1b0znX0H3XV6B-24" value="Linear" style="rounded=1;whiteSpace=wrap;html=1;" vertex="1" parent="1">
          <mxGeometry x="180" y="527" width="80" height="25" as="geometry" />
        </mxCell>
        <mxCell id="4QQ-ZEQ1b0znX0H3XV6B-23" value="Linear" style="rounded=1;whiteSpace=wrap;html=1;" vertex="1" parent="1">
          <mxGeometry x="175" y="532" width="80" height="25" as="geometry" />
        </mxCell>
        <mxCell id="4QQ-ZEQ1b0znX0H3XV6B-16" value="Linear" style="rounded=1;whiteSpace=wrap;html=1;" vertex="1" parent="1">
          <mxGeometry x="170" y="537" width="80" height="25" as="geometry" />
        </mxCell>
        <mxCell id="4QQ-ZEQ1b0znX0H3XV6B-25" value="Linear" style="rounded=1;whiteSpace=wrap;html=1;" vertex="1" parent="1">
          <mxGeometry x="280" y="527" width="80" height="25" as="geometry" />
        </mxCell>
        <mxCell id="4QQ-ZEQ1b0znX0H3XV6B-26" value="Linear" style="rounded=1;whiteSpace=wrap;html=1;" vertex="1" parent="1">
          <mxGeometry x="275" y="532" width="80" height="25" as="geometry" />
        </mxCell>
        <mxCell id="4QQ-ZEQ1b0znX0H3XV6B-31" value="Feed&lt;div&gt;Forward&lt;/div&gt;" style="rounded=1;whiteSpace=wrap;html=1;" vertex="1" parent="1">
          <mxGeometry x="175" y="455" width="280" height="40" as="geometry" />
        </mxCell>
        <mxCell id="4QQ-ZEQ1b0znX0H3XV6B-27" value="Linear" style="rounded=1;whiteSpace=wrap;html=1;" vertex="1" parent="1">
          <mxGeometry x="270" y="537" width="80" height="25" as="geometry" />
        </mxCell>
        <mxCell id="4QQ-ZEQ1b0znX0H3XV6B-28" value="Linear" style="rounded=1;whiteSpace=wrap;html=1;" vertex="1" parent="1">
          <mxGeometry x="380" y="527" width="80" height="25" as="geometry" />
        </mxCell>
        <mxCell id="4QQ-ZEQ1b0znX0H3XV6B-29" value="Linear" style="rounded=1;whiteSpace=wrap;html=1;" vertex="1" parent="1">
          <mxGeometry x="375" y="532" width="80" height="25" as="geometry" />
        </mxCell>
        <mxCell id="4QQ-ZEQ1b0znX0H3XV6B-30" value="Linear" style="rounded=1;whiteSpace=wrap;html=1;" vertex="1" parent="1">
          <mxGeometry x="370" y="537" width="80" height="25" as="geometry" />
        </mxCell>
        <mxCell id="4QQ-ZEQ1b0znX0H3XV6B-15" value="Attention" style="rounded=1;whiteSpace=wrap;html=1;" vertex="1" parent="1">
          <mxGeometry x="170" y="460" width="280" height="40" as="geometry" />
        </mxCell>
        <mxCell id="4QQ-ZEQ1b0znX0H3XV6B-33" value="Q" style="text;html=1;align=center;verticalAlign=middle;whiteSpace=wrap;rounded=0;" vertex="1" parent="1">
          <mxGeometry x="170" y="595" width="80" height="30" as="geometry" />
        </mxCell>
        <mxCell id="4QQ-ZEQ1b0znX0H3XV6B-34" value="K" style="text;html=1;align=center;verticalAlign=middle;whiteSpace=wrap;rounded=0;" vertex="1" parent="1">
          <mxGeometry x="270" y="595" width="80" height="30" as="geometry" />
        </mxCell>
        <mxCell id="4QQ-ZEQ1b0znX0H3XV6B-35" value="V" style="text;html=1;align=center;verticalAlign=middle;whiteSpace=wrap;rounded=0;" vertex="1" parent="1">
          <mxGeometry x="370" y="595" width="80" height="30" as="geometry" />
        </mxCell>
        <mxCell id="4QQ-ZEQ1b0znX0H3XV6B-36" value="" style="endArrow=classic;html=1;rounded=0;exitX=0.5;exitY=0;exitDx=0;exitDy=0;entryX=0.5;entryY=1;entryDx=0;entryDy=0;" edge="1" parent="1" source="4QQ-ZEQ1b0znX0H3XV6B-33" target="4QQ-ZEQ1b0znX0H3XV6B-16">
          <mxGeometry width="50" height="50" relative="1" as="geometry">
            <mxPoint x="230" y="630" as="sourcePoint" />
            <mxPoint x="280" y="580" as="targetPoint" />
          </mxGeometry>
        </mxCell>
        <mxCell id="4QQ-ZEQ1b0znX0H3XV6B-37" value="" style="endArrow=classic;html=1;rounded=0;exitX=0.5;exitY=0;exitDx=0;exitDy=0;entryX=0.5;entryY=1;entryDx=0;entryDy=0;" edge="1" parent="1">
          <mxGeometry width="50" height="50" relative="1" as="geometry">
            <mxPoint x="309.86" y="595" as="sourcePoint" />
            <mxPoint x="309.86" y="562" as="targetPoint" />
          </mxGeometry>
        </mxCell>
        <mxCell id="4QQ-ZEQ1b0znX0H3XV6B-38" value="" style="endArrow=classic;html=1;rounded=0;exitX=0.5;exitY=0;exitDx=0;exitDy=0;entryX=0.5;entryY=1;entryDx=0;entryDy=0;" edge="1" parent="1">
          <mxGeometry width="50" height="50" relative="1" as="geometry">
            <mxPoint x="409.86" y="595" as="sourcePoint" />
            <mxPoint x="409.86" y="562" as="targetPoint" />
          </mxGeometry>
        </mxCell>
      </root>
    </mxGraphModel>
  </diagram>
</mxfile>
